<svg width="500" height="302" viewBox="0 0 500 302" fill="none" xmlns="http://www.w3.org/2000/svg">
<path d="M426.985 61.5026C426.974 61.2507 426.963 60.9987 426.953 60.7576C425.956 39.9303 418.199 24.6577 405.194 14.7096C404.887 14.4796 404.58 14.2495 404.274 14.0413C391.97 5.02454 375.164 0.620239 355.07 0.620239H235.288L232.155 3.75365V220.989L235.288 224.122H264.716L267.85 220.989V133.341L270.972 130.208H355.07C373.454 130.208 389.801 126.001 402.269 117.4C402.849 117.006 403.408 116.611 403.967 116.195C415.788 107.408 423.797 94.4473 426.262 77.1368C426.35 76.5233 426.427 75.8988 426.503 75.2634C426.58 74.6389 426.646 74.0034 426.7 73.368C426.744 72.9188 426.788 72.4696 426.81 72.0204C426.985 69.873 427.062 67.6709 427.062 65.4139C427.062 64.0883 427.04 62.7845 426.985 61.5026ZM270.972 97.6574L267.85 94.524V36.3039L270.983 33.1705H352.879C380.948 33.1705 391.378 41.9133 391.378 65.4139C391.378 88.9145 380.948 97.6574 352.879 97.6574H270.972Z" fill="black"/>
<path d="M499.989 220.989L496.856 224.122H467.428L464.294 220.989V3.75365L467.439 0.620239H496.866L500 3.75365V220.989H499.989Z" fill="black"/>
<path d="M172.316 224.122L166.367 220.825L110.086 133.275L103.972 130.219H38.8171L35.6836 133.352V221L32.5612 224.133H3.13341L0 221V3.75365L3.13341 0.620239H120.724C169.259 0.620239 194.907 23.0252 194.907 65.4139C194.907 97.6574 179.13 118.66 149.232 126.318V129.419L191.774 196.25V220.803L188.454 224.122H172.316ZM120.724 97.6574C148.793 97.6574 159.223 88.9145 159.223 65.4139C159.223 41.9133 148.793 33.1705 120.724 33.1705H38.828L35.6836 36.3039V94.524L38.8171 97.6574H120.724Z" fill="black"/>
<path d="M496.876 265.436L500 268.56V298.312L496.876 301.435H3.12364L0 298.312V268.56L3.12364 265.436H496.887H496.876Z" fill="black"/>
</svg>
